<?xml version="1.0" encoding="utf-8"?>
<!-- Generator: Adobe Illustrator 19.0.0, SVG Export Plug-In . SVG Version: 6.00 Build 0)  -->
<svg version="1.1" id="Layer_1" xmlns="http://www.w3.org/2000/svg" xmlns:xlink="http://www.w3.org/1999/xlink" x="0px" y="0px"
	 viewBox="0 0 512 512" style="enable-background:new 0 0 512 512;" xml:space="preserve">
<g id="XMLID_1_">
	<path id="XMLID_7_" d="M460.1,374.8v-254c0-10.2-8.7-18.1-18.1-18.1H69.2c-10.2,0-18.1,7.9-18.1,18.1v254H0
		c0,10.2,10.2,19.7,20.4,24.4c11.8,4.7,31.5,10.2,52.7,10.2h366.5c21.2,0,40.9-4.7,51.1-9.4C501,396,512,385.8,512,374.8
		C512,374.8,460.1,374.8,460.1,374.8z M255.6,111.3c2.4,0,3.9,1.6,3.9,3.9c0,2.4-1.6,3.9-3.9,3.9c-2.4,0-3.9-1.6-3.9-3.9
		C251.7,112.9,253.2,111.3,255.6,111.3z M70,128.6h370.4c0.8,0,2.4,0.8,2.4,2.4v224.9c0,0.8-0.8,2.4-2.4,2.4H70
		c-0.8,0-2.4-0.8-2.4-2.4V130.9C68.4,129.4,69.2,128.6,70,128.6z M300.4,383.4h-89.7c-5.5,0-10.2-6.3-10.2-7.9h110.1
		C310.7,377.1,307.5,383.4,300.4,383.4z"/>
</g>
</svg>
